# xmcd CD database file
#
# Track frame offsets:
#        150
#        20809
#        34720
#        51919
#        71047
#        84991
#        100195
#        114100
#        132818
#        149294
#        166707
#
# Disc length: 2442 seconds
#
# Revision: 0
# Processed by: cddbd v1.5.2PL0 Copyright (c) Steve Scherf et al.
# Submitted via: CUERipper 2.1.7
#
DISCID=8a09880b
DTITLE=David Lee Murphy - No Zip Code
DYEAR=2018
DGENRE=Country
TTITLE0=Way Gone
TTITLE1=No Zip Code
TTITLE2=David Lee Murphy feat. Kenny Chesney - Everything's Gonna Be Alright
TTITLE3=I Won't Be Sorry
TTITLE4=Haywire
TTITLE5=As The Crow Flies
TTITLE6=Winnebago
TTITLE7=Get Go
TTITLE8=That's Alright
TTITLE9=Voice Of Reason
TTITLE10=Waylon And Willie (And A Bottle Of Jack)
EXTD=
EXTT0=
EXTT1=
EXTT2=
EXTT3=
EXTT4=
EXTT5=
EXTT6=
EXTT7=
EXTT8=
EXTT9=
EXTT10=
PLAYORDER=
